<?xml version="1.0" standalone="no"?><!DOCTYPE svg PUBLIC "-//W3C//DTD SVG 1.1//EN" "http://www.w3.org/Graphics/SVG/1.1/DTD/svg11.dtd"><svg t="1510831523648" class="icon" style="" viewBox="0 0 1024 1024" version="1.1" xmlns="http://www.w3.org/2000/svg" p-id="1143" xmlns:xlink="http://www.w3.org/1999/xlink" width="200" height="200"><defs><style type="text/css"></style></defs><path d="M808.775344 768.016787l-260.549246-260.532459 259.978492-259.995279c4.297443-4.028852 7.016918-9.736393 7.016918-16.081836a22.125115 22.125115 0 0 0-37.686557-15.712524l-0.050361-0.050361-260.532459 260.532459-260.566033-260.532459a22.125115 22.125115 0 0 0-31.25718 31.25718l-0.016787 0.016787 0.050361 0.050361 0.117508 0.134295 260.36459 260.36459-258.58518 258.601967c-5.33823 4.028852-8.829902 10.374295-8.829902 17.575869a22.125115 22.125115 0 0 0 37.938361 15.443934l0.218229 0.21823 260.549246-260.549246L777.417443 799.223607a22.125115 22.125115 0 1 0 31.357901-31.20682" fill="#2c2c2c" p-id="1144"></path></svg>